<svg width="280" height="60" viewBox="0 0 280 60" fill="none" xmlns="http://www.w3.org/2000/svg">
  <!-- Логотип -->
  <path d="M20 10C20 8.89543 20.8954 8 22 8H38C39.1046 8 40 8.89543 40 10V18H48C49.1046 18 50 18.8954 50 20V30C50 31.1046 49.1046 32 48 32H40V40C40 41.1046 39.1046 42 38 42H22C20.8954 42 20 41.1046 20 40V32H12C10.8954 32 10 31.1046 10 30V20C10 18.8954 10.8954 18 12 18H20V10Z" fill="#297AFF"/>
  
  <!-- Текст "lms" -->
  <text x="70" y="38" font-family="Arial, sans-serif" font-size="40" font-weight="bold" fill="#0A6EFF">
    Lms
  </text>
</svg>
